<svg width="440" height="440" viewBox="0 36 440 440" fill="none" xmlns="http://www.w3.org/2000/svg">
  <rect x="88" y="96" width="336" height="320" rx="64" fill="#C0392B"/>
  
  <!-- VWAP Line -->
  <path d="M120 180 L160 190 L200 185 L240 175 L280 195 L320 190 L360 185 L400 180" stroke="#FFA500" stroke-width="3" stroke-dasharray="6 4" fill="none" opacity="0.8"/>

  <!-- Candlesticks -->
  <rect x="128" y="200" width="14" height="36" fill="white"/>
  <line x1="135" y1="190" x2="135" y2="200" stroke="white" stroke-width="2.5"/>
  <line x1="135" y1="236" x2="135" y2="246" stroke="white" stroke-width="2.5"/>

  <rect x="160" y="210" width="14" height="28" fill="#212121"/>
  <line x1="167" y1="198" x2="167" y2="210" stroke="#212121" stroke-width="2.5"/>
  <line x1="167" y1="238" x2="167" y2="250" stroke="#212121" stroke-width="2.5"/>

  <rect x="192" y="195" width="14" height="42" fill="white"/>
  <line x1="199" y1="184" x2="199" y2="195" stroke="white" stroke-width="2.5"/>
  <line x1="199" y1="237" x2="199" y2="248" stroke="white" stroke-width="2.5"/>

  <rect x="224" y="170" width="14" height="52" fill="white"/>
  <line x1="231" y1="158" x2="231" y2="170" stroke="white" stroke-width="2.5"/>
  <line x1="231" y1="222" x2="231" y2="234" stroke="white" stroke-width="2.5"/>

  <rect x="256" y="190" width="14" height="38" fill="#212121"/>
  <line x1="263" y1="178" x2="263" y2="190" stroke="#212121" stroke-width="2.5"/>
  <line x1="263" y1="228" x2="263" y2="240" stroke="#212121" stroke-width="2.5"/>

  <rect x="288" y="205" width="14" height="30" fill="#212121"/>
  <line x1="295" y1="193" x2="295" y2="205" stroke="#212121" stroke-width="2.5"/>
  <line x1="295" y1="235" x2="295" y2="247" stroke="#212121" stroke-width="2.5"/>

  <rect x="320" y="198" width="14" height="34" fill="white"/>
  <line x1="327" y1="186" x2="327" y2="198" stroke="white" stroke-width="2.5"/>
  <line x1="327" y1="232" x2="327" y2="244" stroke="white" stroke-width="2.5"/>

  <rect x="352" y="192" width="14" height="40" fill="white"/>
  <line x1="359" y1="180" x2="359" y2="192" stroke="white" stroke-width="2.5"/>
  <line x1="359" y1="232" x2="359" y2="244" stroke="white" stroke-width="2.5"/>

  <rect x="384" y="185" width="14" height="36" fill="#212121"/>
  <line x1="391" y1="173" x2="391" y2="185" stroke="#212121" stroke-width="2.5"/>
  <line x1="391" y1="221" x2="391" y2="233" stroke="#212121" stroke-width="2.5"/>

  <!-- Base line -->
  <path d="M100 270H412" stroke="white" stroke-width="4" stroke-linecap="round"/>
  
  <!-- Circuit paths -->
  <path d="M135 270V286L120 301" stroke="white" stroke-width="2.5" stroke-linecap="round" fill="none"/>
  <circle cx="120" cy="301" r="4" fill="white"/>
  
  <path d="M167 270V294L152 309" stroke="white" stroke-width="2.5" stroke-linecap="round" fill="none"/>
  <circle cx="152" cy="309" r="4" fill="white"/>
  
  <path d="M199 270V301" stroke="white" stroke-width="2.5" stroke-linecap="round" fill="none"/>
  <circle cx="199" cy="301" r="4" fill="white"/>
  
  <path d="M231 270V294L246 309" stroke="white" stroke-width="2.5" stroke-linecap="round" fill="none"/>
  <circle cx="246" cy="309" r="4" fill="white"/>
  
  <path d="M263 270V286L278 301" stroke="white" stroke-width="2.5" stroke-linecap="round" fill="none"/>
  <circle cx="278" cy="301" r="4" fill="white"/>
  
  <path d="M295 270V301" stroke="white" stroke-width="2.5" stroke-linecap="round" fill="none"/>
  <circle cx="295" cy="301" r="4" fill="white"/>
  
  <path d="M327 270V286L342 301" stroke="white" stroke-width="2.5" stroke-linecap="round" fill="none"/>
  <circle cx="342" cy="301" r="4" fill="white"/>
  
  <path d="M359 270V294L374 309" stroke="white" stroke-width="2.5" stroke-linecap="round" fill="none"/>
  <circle cx="374" cy="309" r="4" fill="white"/>

  <path d="M391 270V286L406 301" stroke="white" stroke-width="2.5" stroke-linecap="round" fill="none"/>
  <circle cx="406" cy="301" r="4" fill="white"/>
  
  <!-- Plus button -->
  <circle cx="400" cy="140" r="36" fill="#76FF5C"/>
  <rect x="386" y="133" width="28" height="14" rx="3" fill="white"/>
  <rect x="393" y="126" width="14" height="28" rx="3" fill="white"/>
</svg>
