<svg width="415" height="440" viewBox="0 36 440 440" fill="none" xmlns="http://www.w3.org/2000/svg">
  <rect x="110" y="96" width="285" height="285" rx="64" fill="#C0392B"/>
  
  <path d="M140 180 L170 190 L200 185 L230 175 L260 195 L290 190 L320 185 L350 180 L365 182" stroke="#FFA500" stroke-width="3" stroke-dasharray="6 4" fill="none" opacity="0.8"/>

  <rect x="143" y="200" width="12" height="36" fill="white"/>
  <line x1="149" y1="190" x2="149" y2="200" stroke="white" stroke-width="2.5"/>
  <line x1="149" y1="236" x2="149" y2="246" stroke="white" stroke-width="2.5"/>

  <rect x="168" y="210" width="12" height="28" fill="#212121"/>
  <line x1="174" y1="198" x2="174" y2="210" stroke="#212121" stroke-width="2.5"/>
  <line x1="174" y1="238" x2="174" y2="250" stroke="#212121" stroke-width="2.5"/>

  <rect x="193" y="195" width="12" height="42" fill="white"/>
  <line x1="199" y1="184" x2="199" y2="195" stroke="white" stroke-width="2.5"/>
  <line x1="199" y1="237" x2="199" y2="248" stroke="white" stroke-width="2.5"/>

  <rect x="218" y="170" width="12" height="52" fill="white"/>
  <line x1="224" y1="158" x2="224" y2="170" stroke="white" stroke-width="2.5"/>
  <line x1="224" y1="222" x2="224" y2="234" stroke="white" stroke-width="2.5"/>

  <rect x="243" y="190" width="12" height="38" fill="#212121"/>
  <line x1="249" y1="178" x2="249" y2="190" stroke="#212121" stroke-width="2.5"/>
  <line x1="249" y1="228" x2="249" y2="240" stroke="#212121" stroke-width="2.5"/>

  <rect x="268" y="205" width="12" height="30" fill="#212121"/>
  <line x1="274" y1="193" x2="274" y2="205" stroke="#212121" stroke-width="2.5"/>
  <line x1="274" y1="235" x2="274" y2="247" stroke="#212121" stroke-width="2.5"/>

  <rect x="293" y="198" width="12" height="34" fill="white"/>
  <line x1="299" y1="186" x2="299" y2="198" stroke="white" stroke-width="2.5"/>
  <line x1="299" y1="232" x2="299" y2="244" stroke="white" stroke-width="2.5"/>

  <rect x="318" y="176" width="12" height="48" fill="white"/>
  <line x1="324" y1="164" x2="324" y2="176" stroke="white" stroke-width="2.5"/>
  <line x1="324" y1="224" x2="324" y2="244" stroke="white" stroke-width="2.5"/>

  <rect x="343" y="156" width="12" height="44" fill="white"/>
  <line x1="349" y1="142" x2="349" y2="156" stroke="white" stroke-width="2.5"/>
  <line x1="349" y1="200" x2="349" y2="206" stroke="white" stroke-width="2.5"/>

  <path d="M125 270H380" stroke="white" stroke-width="4" stroke-linecap="round"/>
  
  <path d="M149 270V286L134 301" stroke="white" stroke-width="2.5" stroke-linecap="round" fill="none"/>
  <circle cx="134" cy="301" r="4" fill="white"/>
  
  <path d="M174 270V294L159 309" stroke="white" stroke-width="2.5" stroke-linecap="round" fill="none"/>
  <circle cx="159" cy="309" r="4" fill="white"/>
  
  <path d="M199 270V301" stroke="white" stroke-width="2.5" stroke-linecap="round" fill="none"/>
  <circle cx="199" cy="301" r="4" fill="white"/>
  
  <path d="M224 270V294L239 309" stroke="white" stroke-width="2.5" stroke-linecap="round" fill="none"/>
  <circle cx="239" cy="309" r="4" fill="white"/>
  
  <path d="M249 270V286L264 301" stroke="white" stroke-width="2.5" stroke-linecap="round" fill="none"/>
  <circle cx="264" cy="301" r="4" fill="white"/>
  
  <path d="M274 270V301" stroke="white" stroke-width="2.5" stroke-linecap="round" fill="none"/>
  <circle cx="274" cy="301" r="4" fill="white"/>
  
  <path d="M299 270V286L314 301" stroke="white" stroke-width="2.5" stroke-linecap="round" fill="none"/>
  <circle cx="314" cy="301" r="4" fill="white"/>
  
  <path d="M324 270V294L339 309" stroke="white" stroke-width="2.5" stroke-linecap="round" fill="none"/>
  <circle cx="339" cy="309" r="4" fill="white"/>

  <path d="M349 270V286L364 301" stroke="white" stroke-width="2.5" stroke-linecap="round" fill="none"/>
  <circle cx="364" cy="301" r="4" fill="white"/>
</svg>
